<svg xmlns="http://www.w3.org/2000/svg" width="1365.333" height="1365.333" version="1.0" viewBox="0 0 1024 1024"><path d="M0 512v512h1024V0H0zM537 65.7c2.3 1 2.1 1.1-3.2 2.3s-5.8 1.5-5.8 4.1c0 2.4-.4 2.8-4 3.3-2.2.3-5.8.9-8 1.2-4.3.6-5.3 2.2-2 3.1 2.6.7 2.7 4.3.1 4.3-1 0-2.1.9-2.4 1.9-.3 1.1-1.7 2.2-3.6 2.6-2.4.5-3.3 1.3-3.7 3.5-.5 2.5-1.3 2.9-6.5 4-6 1.3-7.5 2.8-3.9 3.7 3.4.9 2.2 3.1-2 3.8-2.2.4-4.1 1.2-4.1 1.8-.1.7-.2 2.3-.3 3.7-.1 2-.8 2.7-3.8 3.4-2.1.5-3.8 1.3-3.8 1.8s-1.1 1.3-2.4 1.7c-2.1.9-2.3 1.4-1.9 5.8l.5 4.9-5.5 1.3c-4 .9-5.8 1.8-6.2 3.2-.4 1-1.5 1.9-2.6 1.9-1 0-1.9.7-1.9 1.5s-.9 1.5-2 1.5c-1.3 0-2 .7-2 1.9 0 1.5-1 2.1-3.9 2.6-2.2.4-4.2 1.3-4.5 2.1s-1.2 1.4-2 1.4c-.7 0-1.6.9-1.9 2s-1.2 2-2.1 2c-1.3 0-1.6 1.2-1.6 6 0 5.3-.2 6-2 6-1.3 0-2 .7-2 1.9 0 2.8-1.1 5.1-2.4 5.1-.6 0-2.4.8-4.1 1.7-2.6 1.5-5.7 1.8-22.5 1.7-10.7 0-27.8-.4-38-.9-21.6-.9-22.7-1-30-.7-5.6.2-9.7 1.9-7.2 2.9.6.2 1.2 1.1 1.2 1.9s.6 1.4 1.3 1.4c.8 0 .7.4-.3 1s-1.1 1-.2 1c.6 0 1.2.5 1.2 1.1 0 2.6 3.5 4 13.5 5.4 5.9.8 11.6 2 12.7 2.6 1 .6 7 1.3 13.1 1.6 6.2.3 13.9 1.2 17.2 2s13.2 1.8 22 2.2c9.4.4 16.9 1.2 18.3 2 1.2.6 9.1 1.6 17.5 2.2 16.8 1 24.2 2.3 27.1 4.4 1.7 1.3 1.8 1.8.8 4-1.5 3.2-1.6 19.2-.2 19.7 1.6.5 4 21.7 2.6 22.6-3.5 2.2-98.5 1.5-104.1-.8-1.6-.7-9.8-1.6-18.1-2-8.3-.5-17.7-1.5-21-2.3-3.2-.8-10.6-1.7-16.3-2.1-5.6-.3-10.9-1-11.6-1.6-.8-.7-6.2-1.6-12.1-2.1-6.2-.6-11.6-1.7-12.8-2.5-1.1-.8-4-1.4-6.4-1.4-4.9 0-13.2-1.9-13.2-3 0-.4-3.3-.9-7.4-1.2-4.5-.3-8.2-1.1-9.7-2.1-1.3-1-3.7-1.7-5.4-1.7s-4.7-.8-6.8-1.9c-2-1-5.2-2.2-7.1-2.5-1.9-.4-3.9-1.3-4.6-2.1s-2.3-1.5-3.6-1.5c-2.6 0-7.4-2-7.4-3 0-.4-1.5-1.1-3.4-1.4-1.9-.4-3.6-1.3-3.9-2-.3-.8-1.9-1.7-3.6-2.1-1.6-.3-3.5-1.3-4.2-2.1-.6-.8-1.8-1.4-2.6-1.4-.7 0-1.7-.8-2-1.7-.4-.9-1.5-2.5-2.5-3.5-1.7-1.7-1.8-3.7-1.6-28 .2-20.5.6-26.2 1.6-26.6.7-.2 1.6.5 1.9 1.7s1.3 2.1 2.4 2.1 1.9.6 1.9 1.4c0 1.5 2.1 2.6 5.1 2.6 1.1 0 2.2.6 2.5 1.4s2.4 1.8 4.7 2.2c2.3.3 5.8 1.5 7.7 2.5 1.9 1.1 4.6 1.9 6 1.9s3.5.6 4.6 1.4 5.7 1.7 10.2 2.1c6.9.6 8.2.5 8.2-.7 0-2.5-2.1-7.8-3.1-7.8-.5 0-.9-.7-.9-1.5 0-2.9-7.1-8.9-14.8-12.4-1.2-.6-3.2-2-4.4-3.1s-2.8-2-3.5-2-1.7-.9-2.3-2-1.7-2-2.4-2c-.8 0-1.6-.9-1.9-2s-1.2-2-2-2c-1.8 0-3.1-7.4-2.1-12.5.4-2.5 1.1-3.5 2.5-3.5 1.1 0 1.9-.7 1.9-1.5 0-.9.8-1.8 1.8-2.2.9-.3 2.5-1.4 3.5-2.5 1-1 2.6-1.8 3.7-1.8s2.4-.9 3-2c.6-1.2 2.1-2 3.5-2s3.3-.9 4.2-2c1-1.2 3-2 4.7-2 1.6 0 3.4-.7 4-1.6.7-.8 3.2-1.8 5.6-2.1 2.5-.3 5-1.2 5.6-2 .7-.7 3.5-1.6 6.4-2 2.8-.3 6.8-1.4 8.8-2.4 2-1.1 5.7-1.9 8.2-1.9s5.9-.7 7.5-1.6c1.7-.9 7-2 11.8-2.4 4.9-.5 9.5-1.4 10.2-2 .8-.7 5.4-1.4 10.2-1.7 4.9-.3 11.9-1.4 15.8-2.4 4.3-1.2 10.3-1.9 15.6-1.9 4.9 0 10.7-.7 13.5-1.5 2.9-.9 10.7-1.8 18.9-2.1 7.7-.3 18.1-1.2 23-2 13.5-2.1 14.6-2.2 76-1.9 36.6.1 57.9.5 59.5 1.2M206.7 262.2c2.6 2.8 7 7.2 9.6 9.7 2.7 2.5 7.6 7.1 10.8 10.2 3.3 3.1 6.6 5.9 7.4 6.3.8.3 1.5 1.2 1.5 2.1 0 .8.9 1.5 2 1.5s2 .7 2 1.4c0 .8 1 2.1 2.3 2.8 5.6 3.1 9.7 6.1 9.7 6.9 0 .5.9.9 2 .9s2 .7 2 1.5c0 .9 1.2 2 2.7 2.6s3.4 1.7 4.3 2.4c4.3 4.1 7.4 6.5 8.1 6.5.5 0 .9.7.9 1.5s.9 1.5 1.9 1.5 2.9 1.1 4.2 2.5c1.3 1.3 3 2.5 3.7 2.5s1.5.6 1.8 1.4 2 1.7 3.9 2c3.8.7 5 3.5 4.6 10.2-.2 3.2.3 4.7 2.2 6.8 1.3 1.4 3 2.6 3.7 2.6.6 0 2.3.9 3.7 2 1.6 1.2 4.1 2 6.4 2 2.2 0 3.9.5 3.9 1 0 1.4 3.5 2.6 9.7 3.3 4.3.4 5.4.2 6.9-1.5 1.5-1.6 2-1.7 2.9-.6 1.3 1.7 9.1 5.5 13 6.4 1.7.4 3.2 1.1 3.6 1.5.3.5 2.9 1.3 5.8 1.9 2.9.5 6.2 1.7 7.4 2.5s3.3 1.5 4.7 1.5 4.1.8 6 1.9c1.9 1 5 2.2 6.8 2.5 1.7.4 3.2 1.1 3.2 1.6 0 1.8-4.9 2.3-18 2-7.4-.2-15-.3-16.7-.2-1.8 0-3.3-.3-3.3-.9 0-.5-.9-.9-2.1-.9-1.8 0-2 .4-1.4 2.7.3 1.5 1.1 3.1 1.7 3.4.6.4 1.3 3.9 1.6 7.8.4 5.6.9 7.4 2.3 8.2 1.1.5 1.9 1.8 1.9 2.8 0 2.2 7.2 5.1 12.6 5.1 1.8 0 3.4.5 3.6 1.1.5 1.4 7.7 2.8 14.8 2.9 3 0 7.3.6 9.5 1.4s8.1 1.7 13.2 2.1c7.8.6 9.2 1 9.6 2.6.6 2.1-1.5 2 34.2 2.3 13.9.2 17.5.5 20 1.9 2.4 1.4 5.5 1.7 15.9 1.6 8 0 13.2.3 13.9 1 2.7 2.7-1.3 3.2-24.3 3.2-24.8-.1-30.2-.6-33.6-2.7-1.7-1-7.1-1.3-22-1.2-31.5.1-42.8-.3-44.1-1.4-.7-.6-1.9-.8-2.7-.5s-2.7.1-4.3-.5c-1.7-.6-4.8-.8-7.4-.4l-4.5.7-.2 7c-.1 3.9.3 7.9.9 9 .5 1.1 1.2 4.5 1.4 7.7.3 4 1 6 2.2 6.9 1 .7 2.4 1.7 3.1 2.3s3.7 1.6 6.7 2.3c5.4 1.1 7.4 2.7 3.5 2.7-1.6 0-2 .7-2 3.6 0 2.7.5 3.7 2 4.1 1.1.3 2 .9 2 1.4s.6.9 1.4.9 1.5-1.6 1.9-4.1c.5-4 1.3-5.7 2.2-4.8.2.3.7 6.8 1 14.4.3 7.7.8 17.1 1.1 21l.5 7 4.9 2.4c4.4 2.2 5.1 3 5.8 6.5.7 3.8 1 4.1 4.5 4.4 3.3.3 3.7.6 3.7 3.2 0 1.6.4 4 1 5.4.8 2.1 1.6 2.6 4.5 2.6 5.1 0 5.6-2.2 4.9-20.6-.6-12.9-.5-15.4.7-15.4 3.6.1 3.8 1.3 5 30.5 1.3 33.8 1 32.8 10.9 33.9 3.2.4 6 1.2 6.3 1.9.3.9 8.4 1.3 31.5 1.7 18.7.3 31.5.9 32.1 1.5 1.5 1.6 1.5 3.7.2 8.2-1.1 4.1-2.4 5.3-3.5 3.4-.3-.4-2.9-1.1-5.8-1.4-3.1-.4-5.8-1.3-6.5-2.3-.8-1.1-3.7-1.8-10.1-2.3-4.8-.4-9.5-1.2-10.3-1.7s-10.6-1.1-21.9-1.4c-17.4-.4-20.9-.8-23-2.3-3.5-2.4-16.8-2.5-17.7 0-.4.9-.1 1.9.5 2.1.7.2 1.2.8 1.2 1.4 0 1.2 7 7.8 8.2 7.8.4 0 .8.6.8 1.4 0 1 1.6 1.7 4.5 2.2 6.3.9 6.6 2.4.6 2.4-3.6 0-5.1-.4-5.1-1.4 0-.9-2-1.5-6.2-2-3.4-.3-7.2-1.3-8.4-2.1-1.3-.8-3.8-1.5-5.7-1.5-2.8 0-3.5.5-4.4 3.2-.7 1.8-1 4.6-.7 6.3 1.3 7.6 1.2 7.5 5.3 7.5 2.3 0 4.1.5 4.3 1.2.4 1 6.4 1.4 23.7 1.8 18.4.4 23.4.8 24.1 1.9.5.8 3.1 1.6 6.4 1.9l5.6.4v-8.4l3.8.7c2 .4 5.1 1.3 6.7 2 1.7.8 5.8 1.7 9.3 2 3.4.4 6.9 1.3 7.7 2.1.7.8 3.3 1.4 5.8 1.4 6.4 0 10.7 1 10.7 2.6 0 2.3-4.2 5.4-7.4 5.4-1.6 0-3.7.7-4.7 1.6-1.6 1.4-1.8 1.4-2.9-.5-.6-1.2-1.7-2.1-2.4-2.1-.8 0-2-.7-2.7-1.6-1.2-1.5-1.5-1.4-3.1.6-1 1.3-1.8 3.9-1.8 6.1 0 2.1-.4 3.9-1 3.9-1.5 0-6-2.3-6-3 0-.4-.9-1-1.9-1.3-1.4-.3-2.1-1.5-2.3-3.8l-.3-3.4-7.1-.3c-5.4-.2-7.4.1-8.4 1.3-1.5 1.9-6.2 1.9-9.8.1-1.5-.7-6.2-1.6-10.5-1.9s-8.8-1.2-10-2c-1.5-1-5.6-1.5-13.2-1.6-6-.1-12.1-.3-13.4-.4-3.3-.3-3.8 2.3-3.1 16.3l.5 11.4 3.5 1c1.9.6 4 1.5 4.5 2.2.6.6 3.2 1.4 5.8 1.8 2.7.3 6.3 1.2 8 2 1.8.8 5.4 1.7 8.1 2s5.4 1.2 6 2 3.8 1.6 7.8 1.9c3.7.2 7.6 1.2 8.9 2.1s3.8 1.6 5.5 1.6c3.8 0 9.4 1.9 9.4 3.1 0 .5 1.8.9 4.1.9 2.2 0 6.1.9 8.7 1.9 2.6 1.1 6.7 2.2 9.2 2.6 2.4.3 5.2 1.3 6.1 2.1 1.1 1 4.4 1.5 11 1.7l9.4.2.3-3.3c.3-3.1 2.6-4.5 3.4-2 .2.6 3.5 1.5 7.2 1.9 3.8.5 7.4 1.3 8 1.8.7.6 4.3 1.5 8.1 2.1s7.2 1.5 7.6 2.1c.3.5 3 1.2 6 1.6 3 .3 6.5 1.1 7.9 1.8s5.2 1.6 8.5 2 7.4 1.4 9 2.2c1.7.8 5 1.7 7.5 2s5.4 1.1 6.6 1.8c1.1.7 4.6 1.6 7.8 2 3.1.4 6.3 1.4 7.1 2.1.7.8 2.3 1.4 3.5 1.4 1.1 0 5.2.7 9.1 1.6 4.7 1.1 7.4 1.3 8.2.6.7-.6 2.9-1.3 5-1.7 2-.4 3.7-1 3.7-1.4s2.4-1.5 5.4-2.4c3-1 5.7-2.4 6-3.2s1.2-1.5 2-1.5c1.1 0 1.7-1.5 2.2-5 .8-5.8 1.8-7 3.4-4 .9 1.7 1.7 2 3.9 1.5 2.8-.6 2.9-.5 3.6 5.2.4 3.2 1.2 6.1 1.7 6.4 1.3.8 2.7 8 2.8 14 0 3 .6 5.2 1.9 6.6 1.1 1.1 2.1 3.1 2.3 4.4.1 1.3 1 2.4 1.8 2.4 1.1 0 1.7-1.8 2.3-7 .9-7.8 2.6-12.3 3.9-10.3.6 1 .8 1 .9-.2.2-2.3 1.8 6.7 2.5 14 .3 3.6 1 6.9 1.5 7.4.5.6.9 2.7.9 4.8s.5 3.8 1 3.8c.6 0 1 .6 1 1.4s1.4 1.9 3 2.5c1.7.5 3 1.4 3 1.9 0 2.6-2.4 7.2-3.7 7.2-1 0-1.3.6-.9 1.6.3.9.6 3.8.6 6.5 0 4.1.3 4.9 1.9 4.9s1.9 1.1 2.5 7.2c.4 4 .6 9.1.5 11.3s-.2 4.9-.2 6c.1 10.6.3 87.8.3 90.3v3.4l-6.7-.7c-3.8-.4-7.2-1.1-7.7-1.6-1.3-1.2-11.3-1.2-12.1 0-.6 1.1 1.5 6.1 2.7 6.1.4 0 .8.9.8 2s.7 2 1.5 2c.9 0 1.9.8 2.2 1.7 1.1 2.8 5 6.3 7 6.3 1 0 2.9.9 4.3 2s3.1 2 3.8 2c3.2 0-1.6 4-4.9 4-.6 0-1.7.6-2.4 1.4-.7.7-4.3 1.6-7.8 2-3.6.3-7.8 1.3-9.5 2.1-1.9 1-7.5 1.7-15.8 2.1-7.1.4-15.4 1.3-18.4 2.1-3.2.8-13.2 1.6-23.5 1.9-11.7.3-20.4 1.1-25 2.2-6.1 1.5-13.9 1.7-63.5 1.7-44.9 0-57.3-.3-60.5-1.4-2.6-.8-12.4-1.6-27.5-2.1-14.5-.5-24.7-1.3-26.5-2-1.6-.7-9.1-1.6-16.6-2-7.5-.5-14.7-1.3-15.9-2s-7-1.5-12.9-2c-5.8-.4-11.9-1.3-13.6-2-1.6-.6-7.2-1.6-12.4-2-5.3-.5-9.7-1.4-10.1-2-.4-.7-3.8-1.5-7.6-1.8s-7.9-1.2-9.2-2c-1.2-.8-5.1-1.7-8.7-2-3.6-.2-6.5-.8-6.5-1.2 0-1.2-5.8-3-9.4-3-1.7 0-3.9-.7-4.9-1.5-1.1-.7-3.7-1.7-6-2.1-2.3-.3-5.1-1.2-6.2-2-1.1-.7-3.7-1.6-5.7-1.9-2-.4-3.9-1.3-4.2-2-.3-.8-2.1-1.7-4-2-1.9-.4-3.7-1.3-4-2-.3-.8-2.1-1.7-4-2.1-2-.3-3.6-1-3.6-1.5s-1.6-1.5-3.5-2.3-3.8-2.2-4.1-3.1c-.3-.8-1.5-1.5-2.5-1.5s-1.9-.7-1.9-1.5-.7-1.5-1.5-1.5-2-.9-2.7-2-1.7-2-2.3-2-2.1-1.4-3.5-3.1c-1.4-1.8-3.2-4-4.1-4.9-1-1-2-3.2-2.4-5-.4-1.7-1.3-3.4-2.1-3.7-2.1-.8-1.9-14.8.3-20.4 1.5-4.1 1.7-25.3 2-268.4.2-145.2.6-264.6.8-265.3.7-1.9 1.1-1.6 6.2 4M432 460c0 1.6-.7 2-3.5 2-1.9 0-3.8-.6-4.2-1.4s-2.4-1.6-4.3-1.9c-1.9-.2 0-.5 4.3-.5 7.1-.2 7.7 0 7.7 1.8m16 3c0 .5.9 1 1.9 1 1.1 0 2.3.4 2.6 1 .3.5 3.7 1 7.6 1s6.9.4 6.9 1c0 .5-.7 1-1.6 1-.8 0-1.2.4-.9 1 .4.6-1.2 1-3.9 1-3.3 0-4.6-.4-4.6-1.4 0-1.1-2.2-1.6-8.5-2.1-7.9-.7-8.4-.9-7.4-2.6 1-2 7.9-2.8 7.9-.9m32.6 8.4c2.2 2.3 1.7 2.6-3.6 2.6-2.7 0-5-.5-5-1 0-.6.7-1 1.5-1s1.5-.5 1.5-1c0-1.5 3.9-1.2 5.6.4M448 518.8c0 .5 3.5 1.4 7.7 2 4.2.7 8 1.6 8.3 2.1.3.4 3.3 1.1 6.8 1.5 8.2.9 9.1 1.3 8.5 3.7-.5 1.9-3.3 2.7-3.3.9 0-1.9-3-1-5.7 1.9-1.6 1.5-3.8 3.3-5 4-1.3.6-2.3 2.1-2.3 3.3 0 1.9-.4 2-6.7 1.4-9-.9-10.1-1.3-10.9-3.9-.9-2.8-1.4-13.7-.8-16 .5-1.7 3.4-2.5 3.4-.9m229.8 27c.2.7-.9 1.5-2.7 1.8-1.7.4-3.1 1-3.1 1.5 0 1.6-3.2 1-4.6-.8-2-2.8.2-4.4 5.4-4.1 2.5.2 4.7.9 5 1.6M432 578c0 .5-2 1-4.4 1-2.5 0-4.8-.5-5.1-1-.4-.6 1.3-1 4.4-1 2.8 0 5.1.4 5.1 1m246.8 3.7c.2.7-.9 1.8-2.5 2.4-1.5.6-3.6 1.8-4.6 2.6-3.5 3.2-8.4-1.7-5.4-5.5 1.3-1.7 11.9-1.2 12.5.5m-232.3.3c.4.6-1.3 1-4.4 1-2.8 0-5.1-.5-5.1-1 0-.6 2-1 4.4-1 2.5 0 4.8.4 5.1 1m-28.7 18.6c1.2.4 2.2 1.3 2.2 2 0 1 1.3 1.4 4.3 1.4 6.5 0 11.7 1.1 11.7 2.5 0 .8 2.5 1.5 7 1.9 3.9.4 7.6 1.4 8.4 2.2 1 .9 4.3 1.5 10.5 1.6l9.1.3v3.2c0 2.8-.4 3.3-2.4 3.3-1.3 0-2.9-.6-3.5-1.4-.6-.7-3.7-1.6-6.8-1.9-3.2-.3-6.2-1.2-6.8-2s-3.7-1.6-7.5-2c-3.8-.3-6.8-1.1-7.5-2-.6-.8-3.8-1.7-8-2.1-4.3-.4-7.4-1.2-8.1-2.1-.6-.8-2.6-1.5-4.3-1.5-3.8 0-7.4-1.7-6.6-3.1.7-1 4.9-1.2 8.3-.3m-224 233.1c1.7 2.7 4.3 5.8 5.9 7.1 1.5 1.2 4.2 3.3 5.9 4.7 1.8 1.4 3.9 2.5 4.8 2.5s1.6.6 1.6 1.4c0 1.5 2.1 2.6 5.1 2.6 1.1 0 2.2.7 2.5 1.5.4.8 2.4 1.8 4.5 2.1 2.1.4 3.9 1.2 3.9 1.9s1.6 1.6 3.6 2c2 .3 4.3 1.3 5.1 2.1s3.2 1.7 5.4 2c2.2.4 4.7 1.3 5.4 2.1.8.7 2.9 1.6 4.7 2 1.8.3 3.8 1.2 4.3 1.9.6.6 3.3 1.5 6 1.9 2.8.4 5.7 1.3 6.7 2.2.9.8 4.1 1.8 7.1 2.2 3.1.4 6.2 1.3 7 2 .8.6 3.9 1.4 6.8 1.8 3 .3 6.4 1.2 7.5 2 1.2.7 4.6 1.6 7.5 1.9 3 .4 7.2 1.5 9.5 2.5 2.2 1 6.3 1.9 9 1.9 2.7.1 6.7.9 8.9 2 2.7 1.3 6.2 1.9 10.6 2 3.8 0 8.3.7 10.5 1.6s8.5 2 14.2 2.4c5.6.4 10.9 1.3 11.7 2 .9.8 7.1 1.5 16 2 9.1.5 15.2 1.3 16.1 2.1 1 .8 7.2 1.5 17.2 2 9.8.5 17.4 1.4 20.1 2.3 2.6 1 7.8 1.6 13 1.6 8 0 15.5 1.1 16.8 2.4.3.3-.1 1.1-.9 1.9-1.8 1.9-2.5 18.7-.8 19.7 1.8 1.1 3.6 25 2.1 26-3.5 2.1-53.5 2.1-61.1-.1-1.9-.6-11.4-1.4-21-1.8-10.5-.4-18.4-1.3-19.8-2-1.3-.7-7.9-1.6-14.7-2-7.7-.5-13.1-1.3-14.1-2.1-.9-.8-5.1-1.5-10.2-1.8-5-.2-10.2-1-12.2-2-1.9-.8-6.7-1.8-10.6-2.1-4.1-.4-8.1-1.3-9.7-2.4s-4.6-1.7-7.9-1.7c-3.5 0-6.4-.7-8.6-2-1.9-1.2-5-2-7.4-2s-4.9-.7-5.9-1.6-4-1.9-6.6-2.2-5.3-1.1-5.8-1.9c-.6-.8-3.1-1.7-5.5-2-2.5-.3-5.2-1.2-6.1-1.9-.8-.8-3.8-1.8-6.4-2.3-2.7-.5-5.1-1.4-5.3-2s-1.9-1.3-3.9-1.7-4.4-1.5-5.4-2.5c-1.1-1.1-2.8-1.9-4-1.9s-2.3-.8-2.6-2c-.3-1.1-1.3-2-2.3-2-.9 0-2.5-.9-3.4-1.9-1-1.1-2.8-2.2-4.2-2.5-1.3-.4-2.4-1.3-2.4-2.1s-.7-1.5-1.6-1.5c-1.8 0-18.4-16.3-18.4-18.1 0-.6-.8-1.8-1.7-2.5-1.6-1.1-1.8-3.8-2.1-25.5-.3-23.8 0-28.9 1.7-28.9.4 0 2.2 2.1 3.9 4.7"/><path d="m287.8 371.7-.3 9.8 3.4 3.2c1.9 1.8 3.9 3.3 4.5 3.3s2.2.9 3.6 2 3.5 2 4.7 2 2.8.7 3.6 1.5 3.7 1.9 6.3 2.5c2.7.6 5.6 1.8 6.5 2.6 1 .9 2.6 1.2 4.6.8l3.1-.6.4-12.7c.5-16.6.4-16.9-4.1-17.6-2-.4-6.1-1.5-9.2-2.6-3.9-1.3-8.3-1.9-14.3-1.9-5.1 0-8.6-.4-8.6-1s-.9-1-1.9-1c-1.8 0-2 .9-2.3 9.7m-2.9 33.5c-.4 16.5-1.6 29-2.8 29.7-1.1.7-1.1 1 0 1.4 1 .4 1 .6.2.6-.9.1-1.3 2.5-1.3 8.4v8.3l9-.4c6.2-.3 9-.1 9 .7 0 .6-.5 1.1-1 1.1-.6 0-1.5 1.1-2 2.5-.6 1.5-1.7 2.5-3 2.5-1.1 0-2 .4-2 .8 0 .5-1.6 1.7-3.5 2.8-1.9 1-3.5 2.4-3.5 3.1s-.8 1.6-1.7 2.2c-1.5.8-1.9 2.8-2.1 12.1l-.4 11.2 7.9-.3c8.8-.4 10.5.9 4.9 3.8-1.7.9-3.5 2.2-3.9 2.9-.4.8-1.7 1.4-2.7 1.4-1.3 0-2 .7-2 2s-.7 2-2 2-2 .7-2 2c0 1.1-.6 2-1.4 2-2.8 0-2.7 2.1.3 5 1.6 1.7 3.4 3 4 3s1.1.7 1.1 1.5 1.1 1.7 2.4 2.1c1.4.3 3.2 1.4 4.2 2.5.9 1 2.8 1.9 4.1 1.9 1.2 0 3.2.9 4.3 2s3.3 2 5 2c1.6 0 3.3.7 3.7 1.5.5.8 3 1.9 5.6 2.4s5.6 1.6 6.7 2.6c2.1 1.9 5.2.9 6.9-2.4.6-1.1 1-24.2 1-61 0-67.8.8-62.3-9.6-63.4-3.1-.3-5.9-1.1-6.3-1.8-.5-.7-5-1.5-11.1-1.9-5.7-.5-11.6-1.1-13.1-1.4-2.6-.6-2.8-.4-2.9 2.6m-2.2 44c-.2 1.8-.4.4-.4-3.2s.2-5 .4-3.3c.2 1.8.2 4.8 0 6.5m75.1 66.5c-1.5.4-1.8 1.6-1.8 6.8 0 4.2.4 6.5 1.3 6.8 1 .4 1 .7 0 1.8-3.5 3.6.5 8 9 9.8 3.1.7 5.7 1.7 5.7 2.2s2.2.9 4.9.9c3.1 0 5.5.6 6.5 1.5.8.8 4.6 2.6 8.4 4 8.4 3 20.2 3.6 20.2.9 0-2.2-3.7-7.2-8.2-11.3-2.1-1.8-3.8-3.9-3.8-4.7 0-.7-.9-1.8-2-2.4s-2-1.7-2-2.4c0-.8-.9-1.6-2-1.9s-2-1.2-2-2.1-.7-1.6-1.5-1.6-1.9-.9-2.4-1.9c-.8-1.3-2.7-2.1-6.3-2.6-2.9-.4-6.2-1.3-7.3-1.9-2.1-1.4-13.8-2.7-16.7-1.9M276 540c0 6.1.3 7.2 2.5 9.5 1.4 1.4 3 2.5 3.5 2.5s1.4.9 2 2 1.7 2 2.6 2c.8 0 2.4.9 3.6 2s3 2 4 2 2.1.6 2.4 1.4 2.7 2 5.4 2.6 5.4 1.8 6.1 2.6c.6.8 2.5 1.4 4.1 1.4s4.1.9 5.5 2c3 2.3 5.2 2.5 7.5.7s3.5-21.5 1.3-22.3c-.8-.3-1.7-1.4-2-2.5-.5-1.4-1.6-1.9-4.3-1.9-2-.1-5.5-.9-7.7-2s-5.8-2-8-2-5.3-.7-7-1.6c-1.6-.8-5.2-1.8-7.9-2.1-2.8-.4-6.1-1.2-7.5-2-5.3-2.7-6.1-2-6.1 5.7m-2.6 30.2c-.4.7-1 12.6-1.2 26.5l-.5 25.3 2.9 1.1c1.6.6 5.1.8 7.9.5s5.7-.1 6.5.4c1.2.7.8 1.5-2.3 4.4-2 1.8-4.4 3.7-5.2 4s-1.5 1.2-1.5 2c0 .7-.9 1.6-2 1.9-1.8.5-2 1.4-2 11.6V659h5.4c3 0 5.8-.5 6.1-1 .8-1.2 7.2-1.3 7.9-.1.3.5-.3 1.1-1.4 1.4s-2 1.2-2 2.1-.4 1.6-1 1.6c-.5 0-1.9.9-2.9 1.9-1.1 1.1-3.1 2.7-4.4 3.6-1.4.9-3.3 3.2-4.2 5.1-1.6 3.3-1.5 3.5.7 6.4 1.3 1.6 3.3 3.2 4.6 3.6 1.2.3 2.7 1.5 3.3 2.5.5 1.1 1.7 1.9 2.7 1.9.9 0 2.8.9 4.2 2s3.8 2 5.4 2 3.4.7 4 1.6c.6.8 3.2 2 5.6 2.5 2.5.6 5.2 1.7 6.1 2.5 1 .9 3.1 1.4 5.1 1.2 3.2-.3 3.3-.5 4-5.8.4-3 .7-13.4.7-23s0-18.9.1-20.5c.8-26.3.8-66.5.1-66.5-.5 0-1.3-.9-1.6-2-.5-1.5-1.5-2-4.3-2-2.1 0-5.4-.9-7.5-2-2-1.1-5.5-2-7.7-2-2.3 0-5.4-.7-7.1-1.5-1.6-.9-6.2-2-10.1-2.5-4-.5-7.4-1.3-7.6-1.9-.5-1.5-5.9-1.4-6.8.1M396.7 634c-1.4 1.1-3.3 2-4.2 2s-2.8.9-4.2 2-3.4 2-4.4 2-2.4.9-3.3 2.1c-1.2 1.8-1.3 6.2-.9 27.7.6 24 .7 25.6 2.7 27.6 3.3 3.3 8.7 5.8 14.4 6.6 3 .5 6.2 1.6 7.1 2.4 1 .9 3.5 1.6 5.7 1.6s5.2.9 6.9 2 4.7 2 6.7 2c3.9 0 8.8 1.8 8.8 3.2 0 1.6 2.2.7 5-2.1l2.9-2.8-1-9.9c-.5-5.5-1.1-10.9-1.4-12.2-.8-3.3 3.6-4.8 7.1-2.5 1.5.9 5.1 2 8.1 2.4s6.3 1.5 7.2 2.3c1 .9 2.9 1.6 4.3 1.6 4.3 0 6 1 4.7 2.6-.6.8-2 1.4-3 1.4-1.7 0-1.9.9-1.9 10.4 0 10.8.5 13.6 2.2 13.6.6 0 1.7.8 2.4 1.7 1.3 1.7 1.5 1.7 2.9-.1 1-1.4 1.5-4.4 1.5-9.8 0-7.7.3-8.4 3.4-7.2 1.4.5 1.4.8.1 2.7-2.2 3.1-1.9 10.9.4 13.8 1.8 2.3 2.7 2.4 14.3 2.7 10.4.3 12.6.1 13.7-1.2 1.8-2.1 9.4-2.2 11.1-.1 1.9 2.3 10.9 2 14-.5 3.3-2.6 9.5-2.6 14.3 0 4.5 2.4 10.5 2.7 11.4.4.3-.8-.4-2.5-1.7-4-1.9-1.9-3.3-2.4-7.2-2.4-3.5 0-5.8-.6-7.8-2.2-3.5-2.5-3.8-4.3-1-5.8 1.6-.9 2-2.1 2-6.7v-5.6l4.3.7c4.6.8 6.5 2 4.8 3-1.9 1.2-1.3 4.6.9 4.6 1.1 0 2 .7 2 1.5s1.2 1.7 2.8 2.1c1.5.3 3.3.7 4 1 1.4.4 1.6 3 .2 3.9-1.9 1.2-.9 2.4 4.1 4.9 4.4 2.2 6.4 2.6 14.5 2.6 7.5 0 9.6-.3 10-1.5.8-2 6.8-1.9 8.5.1 1 1.2 2.5 1.5 6.1 1.2 5.7-.6 6.6-1.3 5.1-3.8-1-1.4-.9-2.1.2-3 2.1-1.8 4.5-.4 4.5 2.5 0 3.2 1.8 4 5.6 2.3 1.6-.7 4.7-1.3 6.8-1.3 3.5 0 4-.3 4.8-3 1.6-6 2.6-23.9 1.4-26.5-1.8-4.3-5.2-6.7-10.3-7.5-2.6-.3-5.7-1.3-6.9-2-1.1-.7-4.3-1.6-7-2s-5.6-1.3-6.4-2c-.8-.8-4.7-1.7-8.7-2-4.2-.5-7.4-1.3-7.7-2-.2-.7-2.8-1.5-5.8-1.9-2.9-.4-6.6-1.4-8.3-2.2-1.6-.7-5.2-1.8-7.9-2.3s-5.1-1.3-5.5-1.9c-.3-.5-3.1-1.3-6.1-1.7s-6.8-1.3-8.5-2.2c-1.6-.8-5.2-1.9-7.9-2.4-2.8-.5-5.3-1.5-5.7-2.1-.5-.8-3.7-1.2-9.1-1.3h-8.3l-.3 4.3-.3 4.2-8.7-.7c-4.8-.3-9.1-1.2-9.7-1.8-.5-.7-3.4-1.5-6.4-1.8-2.9-.4-6.4-1.3-7.7-2.2-1.3-.8-3.8-1.5-5.6-1.5-1.8-.1-5.1-.8-7.3-1.6-2.2-.9-6.6-2-9.8-2.5s-6.8-1.6-8-2.4-3.5-1.5-5.2-1.5-4.7-.8-6.7-1.9c-2-1-6-2.1-8.9-2.4-2.9-.4-5.6-1.2-6-1.8-.4-.7-3.8-1.6-7.6-2.1-4.1-.5-7.2-1.4-7.9-2.3-1.5-2.1-4.6-1.9-7.7.5m7.3 8c0 .5-.9 1-2 1s-2-.5-2-1c0-.6.9-1 2-1s2 .4 2 1m-8 4c0 .5-.9 1-2 1s-2-.5-2-1c0-.6.9-1 2-1s2 .4 2 1m-5 3.5c0 .8-.4 1.5-1 1.5-.5 0-1-.7-1-1.5s.5-1.5 1-1.5c.6 0 1 .7 1 1.5m20.8 25.4c.3 14.9-.5 18.5-3.2 14.8-.7-.9-1.8-1.7-2.3-1.7-1.3 0-2.8-21-1.7-24.2.8-2.8 2.3-3.9 4.9-3.6 1.9.3 2 1.2 2.3 14.7m138.7 11.4c.6.8 3.7 1.6 6.9 2 6.3.6 9.2 2.2 6.2 3.3-2.6 1-11-.4-12.2-2.1-.7-1-2.9-1.5-6.3-1.5-4.5 0-5.1-.2-5.1-2.1 0-2 .4-2.1 4.8-1.5 2.6.3 5.2 1.2 5.7 1.9m28.9 8c.7.8 3.8 1.7 7.9 2.1 3.7.4 7.4 1.4 8.1 2.2.8.8 2.9 1.4 4.6 1.4 2.5 0 3.1.4 2.8 1.7-.3 1.4-1.2 1.7-3.8 1.5-1.9-.2-3.9-.9-4.5-1.6-.5-.7-3.7-1.6-7-1.9s-6.4-1.2-7-2c-.5-.7-4.1-1.8-7.9-2.3-4.4-.6-7.1-1.4-7.4-2.3-.7-2 12.7-.9 14.2 1.2M280 703.2c0 5.8 1.5 9.1 6.8 14.8 3 3.3 6.1 6 6.9 6s2.6.9 4 2 3.3 2 4.2 2 2.7.9 4.1 2 3.9 2 5.7 2 3.6.6 4 1.4 2.4 1.7 4.4 2.1l3.6.7.6-10.8c.3-5.9.3-11.3 0-12-1-2.6-5.6-4.6-12.4-5.3-3.9-.4-7.4-1.3-7.8-2s-4-1.5-8.2-1.8c-4.1-.3-7.7-1-8-1.5s-2.2-1.1-4.2-1.5c-3.4-.5-3.7-.4-3.7 1.9m88 6.7c0 1.8.6 2.1 4.1 2.1 3.3 0 4-.3 3.7-1.8-.2-1.2-1.4-1.8-4.1-2-3.2-.3-3.7 0-3.7 1.7m9 4.1c0 .5.7 1 1.5 1s1.5-.5 1.5-1c0-.6-.7-1-1.5-1s-1.5.4-1.5 1m2.3 7.1c-.5.5-3.2 1.3-5.9 1.7-3.9.6-5 1.1-5.2 2.8-.3 1.8.4 2.2 3.6 2.8 2.2.3 4.2 1.3 4.6 2.1.4 1 2 1.5 5.3 1.5 2.9 0 5.8.7 7.3 1.7 1.3.9 4.9 2 7.9 2.4 3.1.5 6 1.4 6.6 2.2.6.9 3.5 1.6 7.9 1.9 4.9.3 7.2.9 8.1 2.1.8 1.2 2.7 1.7 5.9 1.7 3.4 0 5.1.5 6.3 2 1 1.1 2.3 2 3 2s2.6 1.7 4.3 3.9c3.1 3.8 3.2 3.9 12.1 4.6 4.9.3 9.1 1.1 9.4 1.6.4.5 1.3.9 2.1.9 1.9 0 1.8-3.6-.2-5.2-.9-.7-3.5-3.3-5.8-5.8-2.3-2.4-5.9-6.2-8.2-8.5-2.2-2.2-4.3-4.8-4.7-5.8-.4-.9-1.3-1.7-2.2-1.7-.8 0-1.5-.8-1.5-1.9 0-1.3-1-2-3.2-2.5-1.7-.3-4-1.3-4.9-2.2-1.4-1.2-3.3-1.5-9.1-1-9.9.7-9.3.7-18.2-.2-5.6-.7-8.1-1.4-8.8-2.5-.7-1.3-2.4-1.7-8.1-1.7-4 0-7.8.5-8.4 1.1m244.8 1.6c-.8 1.5-2.3 1.7-10.4 1.5-7.3-.2-9.7.1-10.6 1.2-1.1 1.3-.8 1.6 1.6 2.2 1.5.4 3.4 1.3 4.1 2.1.7.7 2.3 1.5 3.5 1.7s4.9.9 8.1 1.5c7.1 1.3 8.6.5 8.6-4.6 0-6-2.8-9.2-4.9-5.6m-50 6.2c-2.8 2.4-4.6 2.6-8.1.6s-15.4-2-17.4 0c-1.9 1.9-4.6 1.9-7.4 0-1.5-1.1-4-1.5-8.4-1.3-6.8.3-8.6 2-3.8 3.6 1.6.6 3 1.8 3 2.6 0 2.3-5 5.6-8.6 5.6-1.8 0-3.6.4-3.9 1-.3.5-1.7 1-3.1 1-1.9 0-2.6.6-3.1 3.1-.6 3.1-.6 3.1-5.9 2.7-3.1-.3-6.2-1.2-7.2-2.1s-3.3-1.7-5-1.7H492v-6c0-8.2-1.8-10-9.9-10h-6l-.6 5.5c-.4 3.1-.5 7.4-.1 9.5.5 3.2.3 4-.9 4s-1.5-1.6-1.5-8.3c0-4.5-.4-8.8-.9-9.5-1.3-2.1-4.4-1-5.2 1.9-.6 2.5.6 20.9 1.6 23.6.3.8 2.3 1.3 5.1 1.3 3 0 5.9.8 8.1 2.1 2.5 1.6 4.2 1.9 6.6 1.4 3.1-.7 6.2-.8 17.7-.6 3 .1 7.8.1 10.5.1 2.8 0 7.5.2 10.5.3 4.3.2 5.5-.1 5.5-1.3 0-.8-1-1.6-2.2-1.8-2.5-.4-3.1-2.7-.9-3.5 1.7-.7 5.4.2 8.1 1.8 1.1.7 4.7 1.5 8 1.8s6.1 1.1 6.3 1.7c.5 1.5 6.8 1.2 8.2-.5 1-1.2 4-1.5 15.1-1.5 12.8 0 14-.2 15.1-2 1.6-2.5 9.8-3 9.8-.6 0 3.3 8.2 3.1 14.3-.3 4.1-2.3 4.2-3.1.9-6.8-1.6-1.7-3.2-3.8-3.5-4.7-.4-.9-1.3-1.6-2.1-1.6-.7 0-1.6-.9-1.9-2s-1.2-2-2.1-2-1.6-.8-1.6-2c0-1.5-.7-2-2.6-2-1.5 0-4.1-.9-5.8-1.9-2-1.2-6-2.1-11.1-2.6-7.2-.6-8.2-.5-10.4 1.4m-50.2 20.7c.1.1 0 .7-.4 1.3-.8 1.4-5.1 1.4-7.7 0-1.7-.9-1.8-1.3-.7-2 1.2-.7 7.7-.2 8.8.7m-205.9 1c-1.4.7-3.3 1.4-4.2 1.4-1 0-3.2.9-5 2s-4.5 2-6 2c-1.8 0-2.8.5-2.8 1.5 0 .8-1.4 1.7-3.6 2.1-2 .4-4.5 1.5-5.5 2.5-1.1 1.1-2.8 1.9-3.9 1.9-1 0-2.4.9-3 1.9-.5 1.1-2.3 2.2-3.9 2.6-1.6.3-3.1 1.4-3.4 2.3s-.8 2.5-1.2 3.4c-.5 1.3-.2 1.8.9 1.8 1 0 1.6.9 1.6 2.3 0 1.2.9 3 2 4 1.1.9 2 2.6 2 3.7s.5 2 1 2c.6 0 1 .6 1 1.3s2.6 4 5.9 7.4c3.2 3.3 6.1 7.3 6.5 8.7.3 1.4 1 2.6 1.5 2.6s3.6 2.7 6.9 6c3.4 3.3 6.8 6 7.6 6s2 .9 2.6 2 1.7 2 2.6 2c.8 0 1.9 1.1 2.5 2.4 1 2 1.6 2.3 4.8 1.9 2.7-.4 4.2 0 5.4 1.2.9.9 1.7 1.1 1.7.5s2.4 1.3 5.3 4.3c2.8 3 6.4 5.7 8 6.1 1.5.3 2.7 1.3 2.7 2 0 .9 1.6 1.7 4 2.1 2.5.4 4 1.2 4 2.1 0 .8.9 1.4 2 1.4 1 0 2.3.8 2.9 1.7.9 1.6 3 1.8 23.2 1.6 12.3 0 22.4-.5 22.8-1 .3-.6 3.5-1 7.1-1.1 23.2-.6 49.6-2.6 50.3-3.9.6-1 4.7-1.3 18.2-1.3 14 0 17.5-.3 17.5-1.3 0-1.5 15.1-2.7 32.2-2.7 4.3 0 7.8-.4 7.8-.9 0-.4 3.5-1.1 7.8-1.4 4.2-.4 11.4-1 16-1.3 4.5-.4 8.2-1 8.2-1.4s3.5-1 7.8-1.4c17.8-1.6 20.2-1.9 20.2-2.6 0-.4-2.7-1.3-6-2s-6-1.6-6-2.1c0-.4-2.6-1.3-5.7-2-3.2-.7-6.1-1.7-6.5-2.2-.3-.6-3.2-1.6-6.5-2.3-3.2-.7-7.6-2-9.8-2.8s-5.2-1.5-6.7-1.6c-1.5 0-3.4-.7-4.2-1.6-.9-.8-4.1-1.8-7.1-2.1s-5.5-.9-5.5-1.3c0-1.4-5.2-3-9.5-3-2.7 0-5.8-.8-7.7-2-1.8-1.1-4.7-2-6.4-2-1.8 0-5.1-.9-7.5-2s-5.9-2-7.8-2-4.2-.7-5.2-1.6c-.9-.8-4.2-1.9-7.2-2.3s-6.7-1.5-8.1-2.4-4.3-1.7-6.5-1.7-4.6-.7-5.5-1.5c-.9-.9-3.9-1.8-6.8-2.2-2.9-.3-6.8-1.4-8.6-2.4-1.9-1.1-5.2-1.9-7.8-1.9-2.5 0-6.2-.9-8.4-2s-5.6-2-7.6-2c-2.1 0-4.5-.7-5.5-1.6-.9-.8-4.4-1.9-7.8-2.4-3.3-.5-7-1.5-8.3-2.4-1.2-.9-4-1.6-6.2-1.6s-4.7-.7-5.7-1.6c-.9-.8-4.5-1.9-7.9-2.4s-7-1.6-7.9-2.4c-1-.9-3.5-1.6-5.8-1.6-2.2 0-5.7-.7-7.7-1.5-2-.9-6.9-2-10.8-2.5-3.9-.4-7.4-1.4-7.8-2-.4-.7-3.8-1.5-7.5-1.7-5-.5-6.9-1-7.8-2.4-.7-1.1-1.9-1.9-2.8-1.9s-1.9-.7-2.3-1.5c-.7-1.8-2.2-1.8-5.6.1M610 761c-1.3.9-1.3 1.2.3 2.4.9.7 1.7 2.1 1.7 3s.7 1.6 1.5 1.6c.9 0 1.8.7 2.2 1.6.8 2.1 4.6 5.9 6.7 6.7.9.4 1.6 1.3 1.6 2.2 0 1.1 1.1 1.5 3.9 1.5 2.2 0 4.8.8 6.2 1.9 1.8 1.4 4.5 2 9.9 2.2 6.8.4 7.5.2 7.8-1.6.3-1.1 1-2.4 1.8-2.8 2.2-1.2 1.7-2.3-1.6-3.7-1.6-.7-3-1.6-3-2 0-.5 1.4-1.3 3-1.9 3.8-1.3 3.8-2-.1-5.4-2.3-2-4.2-2.7-7.4-2.7-2.7 0-5.1-.7-6.8-2-2.2-1.7-4-2-14.4-2-6.5 0-12.5.5-13.3 1m22 5c0 .5-.9 1-2 1s-2-.5-2-1c0-.6.9-1 2-1s2 .4 2 1m13 3.9c0 1.7-1.9 2.2-5.5 1.5-5-.9-4.4-2.4 1-2.4 2.5 0 4.5.4 4.5.9m-189.4-5.1c-.3.5-.2 2.2.3 3.8.6 2.3 1.4 3 3.7 3.2 1.6.2 3.4 1 4.1 1.9s3.4 1.8 6.5 2.1c3 .3 6.4 1.3 7.7 2.3 1.5 1.3 4 1.9 7.1 1.9 3.4 0 5.2.5 6.5 2 1.4 1.6 3.1 2 8.1 2 5.3 0 6.5-.3 7.4-2 1.2-2.2 5.4-2.7 8-1 1.3.9 1.3 1.1 0 2-.8.5-2.7 1-4.2 1-1.7 0-2.8.5-2.8 1.4 0 1.6 3 2.6 8.3 2.6 2.5 0 3.7.5 3.7 1.4 0 1.6 3 2.6 8.3 2.6 2.4 0 4.4.7 5.7 2 1.6 1.6 3.3 2 8 2 4.4 0 6 .4 6 1.4 0 1.6 3 2.6 7.9 2.6 2 0 3.9.7 4.6 1.7 1.7 2.3 12 2.6 12 .3 0-1.1-1.5-1.6-6.2-1.8-5.6-.3-6.3-.5-6.3-2.4s.5-2 7-1.6c5.4.3 7.3.8 8.3 2.2.8 1.2 2.1 1.7 3 1.3 1.3-.5 1.6-3.1 1.9-15.4.4-21.4.8-20.3-6.3-20.3H568v8.4c0 4.6-.3 9.1-.6 10-1 2.5-9.5 2.2-11.7-.4-1.2-1.4-2.9-2-6.1-2-3.1 0-4.8-.5-5.4-1.6s-2.8-1.8-6.3-2.2c-3-.2-5.7-1-6.1-1.7-.5-.7-3.2-1.9-6-2.5-2.9-.7-6.2-1.9-7.3-2.6-2.5-1.8-17.6-1.9-19.3-.2-.9.9-1.5.9-2.4 0-1.8-1.8-18.8-1.6-18.8.2 0 3.2-8.4 3.7-10 .6-.7-1.4-2.1-2-4.4-2-2.5 0-3.5-.5-3.9-2-.5-2-3.1-2.7-4.1-1.2m33.2 7.8c3 .8 2.8 2-.4 2.8-3 .8-8.4-.1-8.4-1.4 0-1.6 5.1-2.3 8.8-1.4m15 5.6c.3 1.5-.4 1.8-4 1.8-5.3 0-8.1-1.5-5.8-3 2.5-1.7 9.4-.8 9.8 1.2m31 7.5c-.2 1.3-1.5 1.9-4.7 2.1-5.4.4-7.2-.3-6.5-2.3.5-1.1 2.1-1.5 6.1-1.5 4.6 0 5.4.3 5.1 1.7m11 2.9c1.2.4 2.2 1.3 2.2 2 0 1 1.6 1.4 6 1.4 5.3 0 6 .2 6 2s-.7 2-6 2-6-.2-6-2-.7-2-6-2-6-.2-6-2c0-1.6.7-2 3.8-2 2 0 4.7.3 6 .6m29.2 1.6c0 .4-2.3.8-5.1.8-2.7 0-4.8-.3-4.6-.8.7-1 9.7-1.1 9.7 0"/><path d="M584 783.6c.1 10.8-.2 20-.7 20.4-.4.5-2.1 1-3.8 1.2-2.9.4-2.9.4 1.3 1.7 2.4.6 5.8 1.1 7.5.9l3.2-.3.3-21.8.2-21.7h-8.1z"/></svg>